# xmcd
#
# Track frame offsets: 
#        150
#        13370
#        26025
#        37972
#        48947
#        62422
#        74047
#        88922
#        100117
#        110190
#        121100
#        134250
#        146897
#        157837
#        166200
#        176515
#        189547
#        200222
#        211810
#        221767
#        232200
#        249922
#        268285
#        277215
#
# Disc length: 3888 seconds
#
# Revision: 6
# Processed by: cddbd v1.5.2PL0 Copyright (c) Steve Scherf et al.
# Submitted via: ExactAudioCopy v0.99pb5
#
DISCID=770f2e18
DTITLE=Marty Robbins - Country 1960-1966 - Disc 1 of 4
DYEAR=1962
DGENRE=Country
TTITLE0=Devil Woman (1962  CS 8718)
TTITLE1=It's Your World (1961  Columbia Single 4-42065)
TTITLE2=Lonely Too Long (1965  Columbia Single 4-43428)
TTITLE3=Over High Mountain (1963  Columbia Single 4-42890)
TTITLE4=Fly Butterfly Fly (Recorded 1964 - Released 1975  Columbia Sin
TTITLE4=gle 4-43845 also C 33476)
TTITLE5=I-Eish-Tay-Mah-Su (Recorded 1964 - Released 1965  Columbia Sin
TTITLE5=gle 4-43196)
TTITLE6=Because It's Wrong (Recorded 1965 - Released 1995  BCD 15655-1
TTITLE6=)
TTITLE7=Like All The Other Times (1960  CS 8435)
TTITLE8=Little Robin (1965  Columbia Single 4-43258)
TTITLE9=It Kinda Reminds Me Of Me (Recorded 1965 - Released 1973  Colu
TTITLE9=mbia Single 4-45775)
TTITLE10=Address Unknown (Recorded 1966 - Released 1984  KC2 39575)
TTITLE11=Yesterday's Roses (Recorded 1966 - Released 1984  KC2 39575)
TTITLE12=Each Night At Nine (Recorded 1966 - Released 1995  BCD 15655-
TTITLE12=17)
TTITLE13=People's Valley (Recorded 1966 - Released 1984  KC2 39575)
TTITLE14=No One Will Ever Know (1962  CS 8655)
TTITLE15=I'm Not Ready Yet (1963  Columbia Single 4-42781)
TTITLE16=I Feel Another Heartbreak Coming On (Recorded 1963 - Released
TTITLE16=1995  BCD 1655-1)
TTITLE17=Ribbon Of Darkness (1965  Columbia Single 4-43258)
TTITLE18=The Roving Gambler (Recorded 1962 - Released 1984  KC2 39575)
TTITLE19=Foggy Foggy Dew (1962  CS 8655)
TTITLE20=Lolene (1962  CS 8655)
TTITLE21=Just Before The Battle Mother (Recorded 1963 - Released 1983 
TTITLE21=BFX 15119)
TTITLE22=Beautiful Dreamer (Recorded 1963 - Released 1984  KC2 39575)
TTITLE23=Long, Long Ago (Recorded 1963 - Released 1984  KC2 39575)
EXTD=Country 1960-1966 - Disc 1 of 4\n© 1995 Bear Family Records\n\nUP
EXTD=C: 4000127156556\nCat Number: BCD 15655 DI\n\nOriginally Released
EXTD=October 17, 1995\n\nAMG EXPERT REVIEW: Cutting away all of Marty
EXTD=Robbins' rock and roll, Hawaiian and cowboy recordings, Bear Famil
EXTD=y's four-disc box set Country (1960-1966) contains nothing but hi
EXTD=s straight country and country-pop recordings of the early '60s. 
EXTD=During that era, Robbins was one of the most popular performers i
EXTD=n country music, scoring an impressive series of Top 10 hits and 
EXTD=pop crossovers like "Don't Worry" and "Devil Woman," which are al
EXTD=l included on this set. Where many Bear Family sets are so thorou
EXTD=gh and complete, they merely wind up being exhausting, Country (1
EXTD=960-1966) is entertaining from start to finish, since it is seque
EXTD=nced in a logical, listenable order and doesn't dwell on the rari
EXTD=ties. Any serious fan of Robbins will find the set an essential a
EXTD=ddition to their library, and it is arguably the finest Robbins b
EXTD=ox Bear Family has released. -- Stephen Thomas Erlewine\n\nHalf.c
EXTD=om Album Notes\nRecorded between 1960 and 1966. Includes liner no
EXTD=tes by Colin Escott.
EXTT0=
EXTT1=
EXTT2=
EXTT3=
EXTT4=
EXTT5=
EXTT6=
EXTT7=
EXTT8=
EXTT9=
EXTT10=
EXTT11=
EXTT12=
EXTT13=
EXTT14=
EXTT15=
EXTT16=
EXTT17=
EXTT18=
EXTT19=
EXTT20=
EXTT21=
EXTT22=
EXTT23=
PLAYORDER=
